<svg width="2723" height="2708" viewBox="0 0 2723 2708" fill="black" xmlns="http://www.w3.org/2000/svg">
<path d="M2682.86 1156.43C2609.08 673.513 2306.59 80.2128 1708.98 18.1208C1708.98 18.1208 1255.24 -37.0682 807.96 46.5778C542.498 96.2208 309.727 244 162.438 456.394C15.1477 668.79 -34.0513 927.776 25.6587 1174.69C64.4397 1335.06 90.6447 1501.03 83.4537 1665.82C74.3847 1873.65 57.3047 2092.16 149.178 2285.97C283.792 2569.92 612.241 2653.56 898.833 2680.24C1004.44 2690.07 1110.45 2694.03 1216.15 2702.39C1418.93 2718.42 1646.34 2692.48 1841.78 2639.68C2837.8 2370.63 2756.64 1639.35 2682.86 1156.43Z" fill="#F4F7FA"/>
<path opacity="0.3" d="M1547.07 471.358L1495.21 474.857C1489.25 451.717 1481.44 429.363 1471.74 408.054L1514.76 379.181C1526.5 371.303 1529.51 355.362 1521.5 343.569L1471.32 269.74C1463.28 257.922 1447.23 254.706 1435.45 262.566L1391.85 291.664C1375.3 274.698 1357.31 259.139 1338.07 245.203L1361.06 197.998C1367.26 185.269 1361.83 169.81 1348.94 163.466L1268.15 123.711C1255.21 117.342 1239.66 122.509 1233.42 135.262L1210.27 182.619C1187.63 176.031 1164.2 171.414 1140.22 168.75L1136.19 115.643C1135.11 101.386 1122.56 90.5157 1108.15 91.3657L1017.85 96.6907C1003.37 97.5447 992.516 109.829 993.601 124.128L997.643 177.393C974.127 182.952 951.407 190.4 929.734 199.73L899.278 155.324C891.066 143.349 874.632 140.06 862.567 147.981L786.989 197.615C774.88 205.567 771.749 221.742 780.002 233.735L810.561 278.15C793.204 294.55 777.349 312.44 763.137 331.584L714.24 307.963C701 301.567 685.084 306.859 678.693 319.788L638.686 400.732C632.28 413.69 637.854 429.365 651.13 435.736L699.669 459.033C693.045 481.782 688.508 505.34 685.998 529.444L632.255 533.069C617.543 534.061 606.496 546.558 607.59 560.982L614.435 651.179C615.529 665.601 628.349 676.453 643.057 675.418L696.362 671.666C702.373 695.321 710.364 718.138 720.284 739.881L676.432 769.149C664.256 777.275 661.106 793.551 669.402 805.495L721.214 880.111C729.489 892.029 746.04 895.082 758.176 886.938L801.685 857.74C818.76 875.03 837.35 890.785 857.2 904.86L834.46 951.376C828.104 964.376 833.645 979.954 846.828 986.162L929.114 1024.91C942.249 1031.1 958.015 1025.59 964.334 1012.61L986.776 966.534C1009.99 972.964 1034 977.301 1058.52 979.614L1062.39 1030.55C1063.47 1044.85 1076.07 1055.52 1090.52 1054.38L1180.69 1047.27C1195.08 1046.13 1205.86 1033.65 1204.77 1019.39L1200.92 968.608C1224.64 962.583 1247.51 954.656 1269.24 944.81L1298.03 986.645C1306.12 998.409 1322.29 1001.39 1334.14 993.315L1408.09 942.895C1419.89 934.847 1422.92 918.806 1414.87 907.06L1386 864.972C1403.1 848.292 1418.7 830.181 1432.6 810.816L1478.74 832.962C1491.58 839.124 1506.98 833.742 1513.15 820.944L1551.66 741.002C1557.81 728.233 1552.42 712.871 1539.61 706.685L1493.38 684.35C1499.68 661.807 1503.96 638.498 1506.23 614.656L1557.67 611.036C1571.82 610.039 1582.42 597.772 1581.35 583.635L1574.64 495.226C1573.56 481.09 1561.22 470.404 1547.07 471.358ZM1079.62 312.5C1224.95 303.269 1350.95 412.083 1361.84 555.493C1372.72 698.901 1264.46 823.867 1119.24 834.669C973.149 845.536 845.146 736.861 834.144 591.877C823.142 446.891 933.405 321.787 1079.62 312.5Z" fill="#BFC8D6"/>
<path d="M2204.25 1790.11C2275.98 1839.63 2281.3 1924 2275.59 1985.65C2268.19 1989.58 2264.94 1993.73 2258.38 1999.33C2199.18 2049.89 2163.15 2058.85 2096.93 2099.47C2082.67 2108.21 2033.03 2121.15 2012.4 2125.14L1973.84 2131.95C1973.84 2131.95 1823.94 1998.61 1889.96 1905.45C1955.99 1812.3 1829.69 1667.6 1772.23 1582.69C1736.94 1530.55 1737.51 1495.41 1727.62 1474.17C1622.93 1249.34 1522.42 1220.22 1533.29 1126.19C1545.29 1022.4 1671.21 1028.17 1690.22 915.952C1711.7 789.231 1565.56 696.787 1612.68 581.408C1620.76 561.627 1629.59 541.522 1649.86 521.484C1699.9 472.025 1766.84 480.615 1782.88 408.869C1815.12 264.656 1937.1 155.036 2078.33 212.021C2217.71 268.263 2227.82 520.376 2065.48 812.373C1973.71 1033.19 1993.49 1074.53 2061.11 1164.99C2108.47 1228.35 2278.86 1368.77 2217.66 1492.6C2156.46 1616.43 2122.25 1733.5 2204.25 1790.11Z" fill="url(#paint0_linear_2038_642)"/>
<g opacity="0.3">
<mask id="mask0_2038_642" style="mask-type:luminance" maskUnits="userSpaceOnUse" x="1604" y="196" width="677" height="1940">
<path d="M2262.56 2063.81L1982.69 2135.01C1982.69 2135.01 1823.94 1998.61 1889.96 1905.45C1955.99 1812.3 1829.69 1667.6 1772.23 1582.69C1616.32 1352.32 1912.94 1225.19 1738.53 913.024C1692.14 829.998 1573.39 687.501 1612.68 581.409C1657.43 460.54 1762.26 501.138 1782.88 408.869C1815.12 264.657 1937.1 155.036 2078.32 212.022C2217.71 268.264 2227.82 520.377 2065.48 812.373C1973.7 1033.19 1993.49 1074.53 2061.11 1164.99C2108.47 1228.35 2278.86 1368.77 2217.66 1492.6C2156.46 1616.43 2122.24 1733.5 2204.25 1790.11C2329.03 1876.26 2262.56 2063.81 2262.56 2063.81Z" fill="white"/>
</mask>
<g mask="url(#mask0_2038_642)">
<path d="M2134.16 2083.23L2128.81 2085.29C2117.18 2055.9 2105.84 2026.11 2095.11 1996.74C2015.67 1779.32 1961.05 1561.88 1932.79 1350.45C1908.85 1171.31 1903.44 993.963 1916.72 823.349C1927.41 686.142 1950.18 552.523 1984.41 426.202C2008.48 337.401 2037.91 253.096 2071.9 175.632C2077.82 162.132 2084.67 148.603 2091.29 135.518C2100.11 118.086 2109.23 100.06 2116.23 81.9619L2121.57 83.588C2114.47 101.935 2105.29 120.083 2096.41 137.633C2089.82 150.652 2083.01 164.114 2077.15 177.477C2043.26 254.698 2013.92 338.751 1989.92 427.301C1955.77 553.308 1933.06 686.611 1922.4 823.501C1909.14 993.763 1914.54 1170.75 1938.44 1349.55C1966.65 1560.62 2021.18 1777.72 2100.5 1994.8C2111.21 2024.13 2122.53 2053.88 2134.16 2083.23Z" fill="#FCFDFE"/>
<path d="M1915.35 1031.29L1909.66 1031.72C1900.94 803.065 1633.38 512.436 1630.68 509.529L1635.04 505.911C1637.75 508.834 1906.56 800.801 1915.35 1031.29Z" fill="#FCFDFE"/>
<path d="M1999.58 1666.41L1993.96 1667.46C1968.63 1513.53 2176.65 1275.41 2178.75 1273.02L2183.07 1276.32C2180.98 1278.69 1974.65 1514.89 1999.58 1666.41Z" fill="#FCFDFE"/>
<path d="M2022.06 1752.24L2016.67 1754.19C1981.34 1658.85 1878.03 1548.87 1725.77 1444.52C1718.11 1439.28 1718.11 1439.28 1717.75 1438.34L1723.11 1436.32L1720.43 1437.33L1722.55 1435.47C1723.01 1435.88 1725.9 1437.86 1729.25 1440.16C1882.38 1545.1 1986.36 1655.93 2022.06 1752.24Z" fill="#FCFDFE"/>
<path d="M2113.74 2029.28L2108.06 2029.73C2103.29 1917.28 2237.44 1801.58 2238.79 1800.43L2242.51 1804.31C2241.18 1805.45 2109.08 1919.4 2113.74 2029.28Z" fill="#FCFDFE"/>
<path d="M2126.71 2087.6C2064.49 2020.55 1978.93 1968.98 1865.12 1929.94L1867.28 1924.9C1981.96 1964.25 2068.24 2016.29 2131.07 2083.99L2126.71 2087.6Z" fill="#FCFDFE"/>
<path d="M1971.04 501.955L1965.36 502.087C1968.07 374.383 1939.41 240.96 1929.99 197.117C1927.71 186.504 1926.92 182.765 1926.89 181.408L1932.58 181.052C1932.62 182.087 1933.92 188.154 1935.57 195.836C1945.02 239.82 1973.77 373.667 1971.04 501.955Z" fill="#FCFDFE"/>
<path d="M1933.94 710.36L1928.54 708.913C1968.51 593.587 2196.62 477.02 2206.31 472.113L2208.83 476.794C2206.48 477.986 1973.17 597.188 1933.94 710.36Z" fill="#FCFDFE"/>
</g>
</g>
<path d="M2258.18 2093.57C2242.49 2097.97 2238.65 2256.85 2153.8 2176.79C2132.6 2156.78 2084.39 2076.98 1972.43 2119.65C1950.7 2127.94 1928.96 2136.22 1907.23 2144.5C1868.49 2104.18 1839.45 2059.01 1896.64 2013.14C1985.45 1941.92 1914.42 1773.49 1860.65 1725.99C1794.1 1667.2 1642.2 1527.2 1777.74 1415.09C1890.58 1321.76 1982.73 1282.9 1922.91 1122.1C1863.09 961.294 1911.29 824.873 2066.92 770.26C2230.7 712.788 2273.92 458.191 2433.84 469.756C2712.49 489.914 2658.12 922.867 2425.27 1139.91C2192.42 1356.96 2392.37 1383.66 2456.23 1508.97C2461.49 1520.93 2468.74 1539.89 2473.04 1563.9C2499.54 1711.67 2368.53 1794.39 2314.46 1947.39C2240.71 2156.05 2284.6 2086.16 2258.18 2093.57Z" fill="url(#paint1_linear_2038_642)"/>
<g opacity="0.3">
<mask id="mask1_2038_642" style="mask-type:luminance" maskUnits="userSpaceOnUse" x="1723" y="469" width="900" height="1709">
<path d="M2284.18 2033.11L1935.6 2177.18C1895.4 2139.2 1832.76 2064.37 1896.64 2013.15C1985.45 1941.92 1914.42 1773.49 1860.65 1725.99C1794.1 1667.2 1642.2 1527.2 1777.74 1415.09C1890.58 1321.75 1982.73 1282.9 1922.91 1122.1C1863.09 961.293 1911.29 824.873 2066.92 770.26C2230.69 712.788 2273.91 458.19 2433.84 469.757C2712.49 489.913 2658.12 922.866 2425.27 1139.91C2192.42 1356.96 2392.36 1383.66 2456.22 1508.97C2543.41 1680.04 2274.59 1749.07 2238.18 1846.1C2209.63 1922.16 2252.04 1992.6 2284.18 2033.11Z" fill="white"/>
</mask>
<g mask="url(#mask1_2038_642)">
<path d="M2097.94 2049.42L2089.94 2051.11C1978.11 1497.85 2150.67 887.254 2540.28 457.617L2546.38 462.58C2158.4 890.407 1986.57 1498.45 2097.94 2049.42Z" fill="#FCFDFE"/>
<path d="M2064.28 1742L2056.74 1745.15C1968.27 1541.6 1713.85 1460.49 1711.29 1459.7L1714.03 1452.32C1716.62 1453.12 1974.41 1535.24 2064.28 1742Z" fill="#FCFDFE"/>
<path d="M2080.3 1947.02L2072.2 1946.43C2097.55 1721.2 2485.44 1528.62 2489.36 1526.7L2492.91 1533.57C2489.03 1535.47 2105.16 1726.08 2080.3 1947.02Z" fill="#FCFDFE"/>
<path d="M2140.43 1189.09L2132.28 1189.17C2136.35 1009.98 1931.57 822.508 1929.5 820.635L1935.21 814.935C1937.3 816.83 2144.57 1006.6 2140.43 1189.09Z" fill="#FCFDFE"/>
<path d="M2277.05 849.482L2270.47 845.098C2397.16 676.691 2682.58 621.101 2685.45 620.562L2686.8 628.167C2683.96 628.697 2401.76 683.697 2277.05 849.482Z" fill="#FCFDFE"/>
</g>
</g>
<path d="M1927.62 543.281C1924.09 491.027 1885.22 448.58 1834.77 446.827L1832.63 446.748L348.694 395.183L346.038 395.09C284.429 392.949 233.675 439.226 232.097 498.994C232.07 499.942 231.723 500.891 231.723 501.841V586.228V1830.58C231.723 1891.72 283.123 1939.38 345.708 1936.54L1832 1868.93C1884.95 1866.53 1927.38 1818.95 1927.38 1763.18V628.037V551.057C1927.38 548.435 1927.81 545.86 1927.62 543.281Z" fill="url(#paint2_linear_2038_642)"/>
<path d="M1963.95 552.111V1761.89C1963.95 1817.56 1921.88 1864.95 1869.14 1867.34L388.642 1934.65C326.332 1937.48 274.945 1889.95 274.945 1828.94V503.092C274.945 502.144 275.424 501.202 275.45 500.256C277.022 440.621 327.565 394.451 388.901 396.582L1869.31 448.019C1919.56 449.765 1960.26 492.192 1963.98 544.348C1964.16 546.923 1963.95 549.494 1963.95 552.111Z" fill="url(#paint3_linear_2038_642)"/>
<path d="M1963.95 552.111V627.36L274.945 585.561V503.093C274.945 502.145 275.424 501.203 275.45 500.257C277.104 440.624 330.26 394.545 391.578 396.676L1871.59 448.099C1921.83 449.845 1960.46 492.199 1963.98 544.349C1964.16 546.923 1963.95 549.494 1963.95 552.111Z" fill="url(#paint4_linear_2038_642)"/>
<path d="M1854.23 554.033C1854.23 570.037 1843.15 582.677 1827.98 582.266L791.244 554.176C774.218 553.715 760.367 539.567 760.367 522.573V488.239C760.367 471.245 774.823 457.911 791.849 458.459L1827.69 491.839C1842.86 492.327 1854.23 505.696 1854.23 521.7V554.033Z" fill="white"/>
<path d="M480.162 496.105C480.162 515.061 464.487 529.991 445.115 529.451C425.703 528.909 409.938 513.046 409.938 494.02C409.938 474.994 425.703 460.067 445.115 460.678C464.488 461.287 480.162 477.148 480.162 496.105Z" fill="white"/>
<path d="M572.553 498.848C572.553 517.713 557.029 532.572 537.844 532.037C518.62 531.501 503.008 515.716 503.008 496.783C503.008 477.85 518.62 462.992 537.844 463.598C557.029 464.202 572.553 479.984 572.553 498.848Z" fill="white"/>
<path d="M664.056 501.566C664.056 520.34 648.681 535.13 629.681 534.6C610.642 534.069 595.18 518.363 595.18 499.521C595.18 480.679 610.642 465.891 629.681 466.491C648.681 467.089 664.056 482.792 664.056 501.566Z" fill="white"/>
<path d="M1119.45 1080.33L417.914 1080.99V735.542L1119.45 747.561V1080.33Z" fill="white"/>
<path d="M1847.58 808.596L1189.27 799.117V748.669L1847.58 759.951V808.596Z" fill="white"/>
<path d="M1847.58 898.936L1189.27 892.805V842.357L1847.58 850.291V898.936Z" fill="white"/>
<path d="M1847.58 989.276L1189.27 986.493V939.649L1847.58 944.106V989.276Z" fill="white"/>
<path d="M1847.58 1079.62L1189.27 1080.18V1029.73L1847.58 1030.97V1079.62Z" fill="white"/>
<path d="M1847.59 1201.23L431.215 1212.21V1159.68L1847.59 1152.58V1201.23Z" fill="white"/>
<path d="M1847.59 1291.57L431.215 1309.77V1257.24L1847.59 1242.92V1291.57Z" fill="white"/>
<path d="M1847.59 1381.91L431.215 1407.32V1354.79L1847.59 1333.26V1381.91Z" fill="white"/>
<path d="M1847.59 1472.25L431.215 1504.88V1452.35L1847.59 1423.61V1472.25Z" fill="white"/>
<path d="M1847.59 1618.18L431.215 1662.46V1609.93L1847.59 1569.54V1618.18Z" fill="white"/>
<path d="M1847.59 1708.52L431.215 1760.02V1707.49L1847.59 1659.88V1708.52Z" fill="white"/>
<path opacity="0.4" d="M1963.95 1705.15V1761.89C1963.95 1817.56 1921.88 1864.95 1869.14 1867.34L388.642 1934.65C326.332 1937.48 274.945 1889.95 274.945 1828.94V503.092C274.945 502.144 275.424 501.202 275.45 500.256C277.022 440.621 327.565 394.451 388.901 396.582L492.674 400.186C497.681 422.045 504.75 446.323 514.56 471.658C522.169 491.293 531.473 511.531 542.81 531.807C554.715 553.086 568.871 574.396 585.701 594.938C633.586 653.456 702.92 705.858 803.021 735.486C812.424 738.258 821.795 741.13 831.102 744.049C936.628 777.268 1036.25 820.511 1120.57 882.331C1144.03 899.517 1166.32 918.155 1187.22 938.419C1203.37 954.078 1218.7 970.705 1233.1 988.376C1244.16 1001.91 1254.69 1016.1 1264.65 1030.93C1275.25 1046.78 1285.23 1063.39 1294.5 1080.81C1306.94 1104.15 1318.12 1128.98 1327.89 1155.38C1333.82 1171.34 1339.24 1187.86 1344.1 1205C1348.02 1218.65 1351.57 1232.68 1354.76 1247.13C1358.33 1263.13 1361.45 1279.65 1364.13 1296.67C1366.42 1311.16 1368.37 1326.02 1369.96 1341.26C1371.7 1357.33 1373.02 1373.86 1373.94 1390.81C1374.73 1404.56 1375.24 1418.59 1375.48 1432.95C1375.77 1449.09 1375.7 1465.64 1375.29 1482.56C1375.14 1489.12 1374.95 1495.74 1374.69 1502.42C1373.48 1533.61 1375.58 1560.67 1380.59 1584.11C1384.54 1602.66 1390.31 1618.93 1397.74 1633.17C1406.15 1649.34 1416.64 1662.91 1428.96 1674.23C1455.79 1698.91 1490.79 1712.89 1531.64 1719.98C1654.21 1741.26 1827.64 1700.89 1963.95 1705.15Z" fill="white"/>
<path d="M2276.48 1354.74V2509.14C2276.48 2542.4 2262.17 2573.31 2238.55 2593.03C2223.8 2605.37 2207.07 2613.65 2187.63 2615.37L1465.28 2679.36C1408.59 2684.39 1362.16 2640.96 1362.16 2583.2V1347.9C1362.16 1347 1362.16 1345.29 1362.19 1344.39C1363.62 1287.9 1409.71 1242.39 1465.51 1243.23L2187.66 1254.06C2235.83 1254.79 2273.86 1295.93 2277.42 1346.42C2277.59 1348.91 2276.48 1352.2 2276.48 1354.74Z" fill="url(#paint5_linear_2038_642)"/>
<path d="M2276.48 1354.74V1412.73L1362.16 1409.95V1347.9C1362.16 1347 1362.16 1345.29 1362.19 1344.39C1363.7 1287.9 1412.17 1242.43 1467.95 1243.26L2189.85 1254.1C2238 1254.82 2274.05 1295.93 2277.42 1346.42C2277.59 1348.91 2276.48 1352.2 2276.48 1354.74Z" fill="url(#paint6_linear_2038_642)"/>
<path d="M2233.26 1340.91C2233.26 1356.38 2221.76 1368.85 2207.32 1368.76L1739.01 1365.83C1723.48 1365.73 1711.27 1352.62 1711.27 1336.53V1328.46C1711.27 1312.37 1723.56 1299.45 1739.08 1299.62L2207.48 1304.84C2221.91 1305.01 2233.26 1317.68 2233.26 1333.15L2233.26 1340.91Z" fill="url(#paint7_linear_2038_642)"/>
<path d="M1482.19 1331.65C1482.19 1349.63 1467.84 1364.12 1450.09 1364.01C1432.3 1363.9 1417.84 1349.16 1417.84 1331.09C1417.84 1313.03 1432.3 1298.54 1450.09 1298.74C1467.84 1298.93 1482.19 1313.66 1482.19 1331.65Z" fill="url(#paint8_linear_2038_642)"/>
<path d="M1566.68 1332.38C1566.68 1350.25 1552.5 1364.65 1534.96 1364.54C1517.39 1364.43 1503.11 1349.79 1503.11 1331.83C1503.11 1313.87 1517.39 1299.47 1534.96 1299.67C1552.5 1299.86 1566.68 1314.5 1566.68 1332.38Z" fill="url(#paint9_linear_2038_642)"/>
<path d="M1650.13 1333.1C1650.13 1350.86 1636.12 1365.18 1618.8 1365.07C1601.44 1364.96 1587.33 1350.4 1587.33 1332.56C1587.33 1314.71 1601.44 1300.4 1618.8 1300.59C1636.12 1300.78 1650.13 1315.33 1650.13 1333.1Z" fill="url(#paint10_linear_2038_642)"/>
<path opacity="0.3" d="M2216.64 2521.89L1435.3 2585.73V1484.99L2216.64 1483.1V2521.89Z" fill="url(#paint11_linear_2038_642)"/>
<path d="M1820.99 1875.53L1491.83 1885.87V1559.39L1820.99 1556.84V1875.53Z" fill="url(#paint12_linear_2038_642)"/>
<path d="M2166.76 1601.38L1844.26 1605.03V1556.64L2166.76 1554.13V1601.38Z" fill="url(#paint13_linear_2038_642)"/>
<path d="M2166.76 1689.13L1844.26 1694.92V1646.52L2166.76 1641.88V1689.13Z" fill="url(#paint14_linear_2038_642)"/>
<path d="M2166.76 1780.25L1844.26 1788.26V1739.86L2166.76 1733V1780.25Z" fill="url(#paint15_linear_2038_642)"/>
<path d="M2166.76 1864.62L1844.26 1874.69V1826.29L2166.76 1817.37V1864.62Z" fill="url(#paint16_linear_2038_642)"/>
<path d="M2166.77 1982.75L1495.15 2009.94V1960.27L2166.77 1935.5V1982.75Z" fill="url(#paint17_linear_2038_642)"/>
<path d="M2166.77 2070.49L1495.15 2102.18V2052.51L2166.77 2023.25V2070.49Z" fill="url(#paint18_linear_2038_642)"/>
<path d="M2166.77 2158.24L1495.15 2194.43V2144.76L2166.77 2110.99V2158.24Z" fill="url(#paint19_linear_2038_642)"/>
<path d="M2166.77 2245.99L1495.15 2286.67V2237L2166.77 2198.74V2245.99Z" fill="url(#paint20_linear_2038_642)"/>
<path d="M2166.77 2387.74L1495.15 2435.68V2386.01L2166.77 2340.49V2387.74Z" fill="url(#paint21_linear_2038_642)"/>
<path d="M2166.77 2475.49L1495.15 2527.92V2478.25L2166.77 2428.24V2475.49Z" fill="url(#paint22_linear_2038_642)"/>
<path d="M2316.38 1355.02V2505.77C2316.38 2538.93 2301.57 2569.86 2278.1 2589.51C2263.43 2601.81 2245.81 2610.18 2226.49 2611.89L1507.33 2675.5C1450.99 2680.49 1405.38 2637.03 1405.38 2579.47V1348.25C1405.38 1347.35 1405.94 1345.63 1405.96 1344.74C1407.39 1288.43 1453.04 1243.05 1508.49 1243.88L2226.56 1254.65C2274.44 1255.37 2313.01 1296.39 2316.55 1346.73C2316.72 1349.21 2316.38 1352.49 2316.38 1355.02Z" fill="url(#paint23_linear_2038_642)"/>
<path d="M2316.38 1355.02V1412.82L1405.38 1410.09V1348.24C1405.38 1347.35 1405.94 1345.63 1405.96 1344.74C1407.46 1288.43 1455.48 1243.09 1510.91 1243.92L2228.74 1254.69C2276.6 1255.4 2313.2 1296.39 2316.55 1346.73C2316.72 1349.21 2316.38 1352.49 2316.38 1355.02Z" fill="url(#paint24_linear_2038_642)"/>
<path d="M2269.84 1341.23C2269.84 1356.66 2258.8 1369.09 2244.45 1369L1778.76 1366.06C1763.33 1365.96 1751.16 1352.85 1751.16 1336.81V1328.76C1751.16 1312.72 1763.65 1299.87 1779.08 1300.04L2244.47 1305.25C2258.83 1305.41 2269.84 1318.06 2269.84 1333.49V1341.23Z" fill="white"/>
<path d="M1525.77 1332.02C1525.77 1349.95 1511.51 1364.39 1493.87 1364.28C1476.19 1364.17 1461.82 1349.48 1461.82 1331.47C1461.82 1313.46 1476.19 1299.02 1493.87 1299.22C1511.51 1299.41 1525.77 1314.1 1525.77 1332.02Z" fill="white"/>
<path d="M1609.72 1332.75C1609.72 1350.57 1595.63 1364.92 1578.21 1364.81C1560.74 1364.7 1546.55 1350.1 1546.55 1332.2C1546.55 1314.3 1560.74 1299.95 1578.21 1300.14C1595.63 1300.33 1609.72 1314.93 1609.72 1332.75Z" fill="white"/>
<path d="M1692.66 1333.46C1692.66 1351.17 1678.74 1365.44 1661.52 1365.34C1644.27 1365.23 1630.25 1350.72 1630.25 1332.93C1630.25 1315.14 1644.27 1300.87 1661.52 1301.06C1678.74 1301.25 1692.66 1315.75 1692.66 1333.46Z" fill="white"/>
<path opacity="0.3" d="M2256.54 2518.47L1475.2 2582.29V1484.89L2256.54 1482.97V2518.47Z" fill="url(#paint25_linear_2038_642)"/>
<path d="M1854.23 1874.37L1528.4 1884.72V1559.16L1854.23 1556.56V1874.37Z" fill="white"/>
<path d="M2206.67 1600.87L1890.81 1604.56V1556.32L2206.67 1553.77V1600.87Z" fill="white"/>
<path d="M2206.67 1688.34L1890.81 1694.15V1645.91L2206.67 1641.24V1688.34Z" fill="white"/>
<path d="M2206.67 1779.17L1890.81 1787.19V1738.95L2206.67 1732.07V1779.17Z" fill="white"/>
<path d="M2206.67 1863.28L1890.81 1873.33V1825.09L2206.67 1816.18V1863.28Z" fill="white"/>
<path d="M2206.66 1981.03L1535.05 2008.29V1958.77L2206.66 1933.93V1981.03Z" fill="white"/>
<path d="M2206.66 2068.5L1535.05 2100.25V2050.73L2206.66 2021.4V2068.5Z" fill="white"/>
<path d="M2206.66 2155.97L1535.05 2192.2V2142.69L2206.66 2108.87V2155.97Z" fill="white"/>
<path d="M2206.66 2243.44L1535.05 2284.16V2234.65L2206.66 2196.34V2243.44Z" fill="white"/>
<path d="M2206.66 2384.74L1535.05 2432.71V2383.2L2206.66 2337.64V2384.74Z" fill="white"/>
<path d="M2206.66 2472.21L1535.05 2524.67V2475.15L2206.66 2425.11V2472.21Z" fill="white"/>
<path opacity="0.4" d="M2278.61 2589.51C2263.95 2601.81 2246.07 2610.18 2226.74 2611.89L1507.45 2675.5C1451.12 2680.49 1405.38 2637.03 1405.38 2579.47V1348.25C1405.38 1347.35 1405.94 1345.63 1405.96 1344.74C1407.39 1288.43 1453.04 1243.05 1508.49 1243.88L1617.46 1245.52C1613.12 1266.56 1608.39 1287.83 1604.24 1313.8C1602.1 1327.28 1600.18 1342 1598.53 1356.88C1596.62 1374.1 1595.21 1392.3 1594.45 1410.71C1593.49 1434.79 1593.72 1459.65 1595.7 1484.28C1597.76 1510.01 1601.72 1535.62 1608.21 1560.14C1625.83 1626.78 1662.01 1685.46 1728.87 1717.75C1775.94 1740.49 1819.24 1761.25 1857.85 1783.52C1880.7 1796.7 1901.95 1810.43 1921.36 1825.45C1939.59 1839.5 1956.22 1854.74 1971.11 1871.7C1988.98 1892.06 2004.36 1914.96 2016.96 1941.46C2023.83 1955.92 2029.88 1971.43 2035.03 1988.2C2038.92 2000.77 2042.3 2014.02 2045.16 2028.06C2048.2 2042.82 2050.68 2058.48 2052.55 2075.08C2054.12 2088.57 2055.26 2102.72 2056.01 2117.52C2056.77 2132.56 2057.13 2148.3 2057.04 2164.8C2057 2177.74 2056.68 2191.18 2056.1 2205.08C2055.46 2220.31 2054.47 2236.13 2053.2 2252.58C2052.4 2262.67 2051.48 2273 2050.43 2283.58C2048 2308.07 2046.81 2330.17 2046.75 2350.07C2046.66 2367.41 2047.42 2383.08 2048.91 2397.28C2050.48 2412.06 2052.84 2425.24 2055.92 2437.01C2060.72 2455.49 2067.27 2470.51 2075.13 2482.85C2089.36 2505.19 2107.91 2518.92 2128.43 2528.3C2178.14 2551.07 2239.26 2549.51 2278.61 2589.51Z" fill="white"/>
<path d="M1031.76 2362.67C1031.76 2542.96 890.789 2684.78 710.608 2679.25C523.093 2673.49 365.387 2511.54 365.387 2317.74C365.387 2123.94 523.093 1983.26 710.608 2002.79C890.789 2021.55 1031.76 2182.38 1031.76 2362.67Z" fill="url(#paint26_linear_2038_642)"/>
<path d="M1080.45 2347.12C1080.45 2527.41 939.476 2669.23 759.295 2663.7C571.78 2657.94 414.074 2496 414.074 2302.2C414.074 2108.4 571.78 1967.72 759.295 1987.24C939.476 2006 1080.45 2166.83 1080.45 2347.12Z" fill="url(#paint27_linear_2038_642)"/>
<path d="M1066.31 2346.17C1066.31 2518.52 931.423 2653.87 759.297 2648.29C580.49 2642.5 430.363 2487.95 430.363 2303.29C430.363 2118.64 580.49 1984.33 759.297 2002.65C931.422 2020.28 1066.31 2173.82 1066.31 2346.17Z" fill="url(#paint28_linear_2038_642)"/>
<path opacity="0.53" d="M1051.41 2345.16C1051.41 2496.51 942.052 2617.75 796.583 2631.33C784.361 2632.48 771.841 2632.86 759.151 2632.44C589.24 2626.73 446.754 2479.77 446.754 2304.41C446.754 2151.92 554.491 2035.45 694.337 2018.97C715.29 2016.5 737.007 2016.24 759.151 2018.5C922.889 2035.07 1051.41 2181.09 1051.41 2345.16Z" fill="white"/>
<path d="M796.583 2631.33C784.361 2632.48 771.841 2632.86 759.151 2632.44C589.24 2626.73 446.754 2479.77 446.754 2304.41C446.754 2151.92 554.491 2035.45 694.337 2018.97C741.564 2055.85 783.849 2103.03 791.131 2158.94C803.012 2250.07 711.968 2292.02 701.918 2391.07C693.658 2472.79 732.792 2563.83 796.583 2631.33Z" fill="url(#paint29_linear_2038_642)"/>
<path d="M721.027 2520.06C707.338 2520.06 694.606 2512.8 687.524 2500.86L568.722 2300.58C557.602 2281.83 563.593 2257.51 582.101 2246.25C600.6 2234.99 624.618 2241.05 635.738 2259.8L718.208 2398.83L827.229 2181.96C837.024 2162.47 860.566 2154.72 879.801 2164.64C899.041 2174.56 906.698 2198.4 896.903 2217.88L755.87 2498.43C749.421 2511.26 736.603 2519.53 722.402 2520.03C721.943 2520.05 721.485 2520.06 721.027 2520.06Z" fill="white"/>
<path d="M727.119 1957.79C719.378 1957.79 713.82 1951.51 713.82 1943.77V1922.74C713.82 1915 719.379 1908.73 727.119 1908.73C734.859 1908.73 740.418 1915 740.418 1922.74V1943.77C740.418 1951.51 734.859 1957.79 727.119 1957.79Z" fill="url(#paint30_linear_2038_642)"/>
<path d="M727.119 1887.7C719.378 1887.7 713.82 1881.43 713.82 1873.69V1835.14C713.82 1827.4 719.379 1821.12 727.119 1821.12C734.859 1821.12 740.418 1827.4 740.418 1835.14V1873.69C740.418 1881.43 734.859 1887.7 727.119 1887.7ZM727.119 1800.1C719.378 1800.1 713.82 1793.82 713.82 1786.08V1747.54C713.82 1739.8 719.379 1733.52 727.119 1733.52C734.859 1733.52 740.418 1739.8 740.418 1747.54V1786.08C740.418 1793.82 734.859 1800.1 727.119 1800.1ZM727.119 1712.5C719.378 1712.5 713.82 1706.22 713.82 1698.48V1659.93C713.82 1652.19 719.379 1645.92 727.119 1645.92C734.859 1645.92 740.418 1652.19 740.418 1659.93V1698.48C740.418 1706.22 734.859 1712.5 727.119 1712.5ZM727.119 1624.89C719.378 1624.89 713.82 1618.62 713.82 1610.88V1572.33C713.82 1564.59 719.379 1558.31 727.119 1558.31C734.859 1558.31 740.418 1564.59 740.418 1572.33V1610.88C740.418 1618.62 734.859 1624.89 727.119 1624.89Z" fill="url(#paint31_linear_2038_642)"/>
<path d="M727.119 1526.78C719.378 1526.78 713.82 1520.5 713.82 1512.76V1491.73C713.82 1483.99 719.379 1477.72 727.119 1477.72C734.859 1477.72 740.418 1483.99 740.418 1491.73V1512.76C740.418 1520.5 734.859 1526.78 727.119 1526.78Z" fill="url(#paint32_linear_2038_642)"/>
<path d="M1108.47 2338.66C1101.31 2338.66 1095.2 2333.21 1094.53 2325.94C1093.81 2318.23 1099.48 2311.4 1107.19 2310.69L1149.07 2306.81C1156.73 2306.17 1163.6 2311.76 1164.31 2319.48C1165.03 2327.19 1159.36 2334.01 1151.65 2334.73L1109.77 2338.6C1109.34 2338.64 1108.9 2338.66 1108.47 2338.66ZM1202.68 2329.95C1195.52 2329.95 1189.41 2324.49 1188.74 2317.22C1188.03 2309.51 1193.7 2302.69 1201.41 2301.97L1243.27 2298.1C1251.01 2297.43 1257.81 2303.07 1258.52 2310.77C1259.23 2318.48 1253.56 2325.31 1245.85 2326.02L1203.99 2329.89C1203.55 2329.93 1203.11 2329.95 1202.68 2329.95ZM1296.89 2321.24C1289.73 2321.24 1283.62 2315.78 1282.95 2308.51C1282.23 2300.8 1287.9 2293.98 1295.61 2293.26L1337.49 2289.39C1345.22 2288.75 1352.02 2294.35 1352.73 2302.06C1353.45 2309.77 1347.78 2316.59 1340.07 2317.31L1298.19 2321.18C1297.76 2321.22 1297.32 2321.24 1296.89 2321.24ZM1391.1 2312.53C1383.94 2312.53 1377.83 2307.07 1377.16 2299.8C1376.44 2292.09 1382.11 2285.27 1389.82 2284.55L1431.69 2280.68C1439.43 2280.02 1446.23 2285.64 1446.94 2293.35C1447.65 2301.06 1441.98 2307.88 1434.27 2308.6L1392.4 2312.47C1391.97 2312.5 1391.53 2312.53 1391.1 2312.53ZM1485.31 2303.81C1478.15 2303.81 1472.04 2298.35 1471.36 2291.09C1470.65 2283.38 1476.32 2276.55 1484.03 2275.84L1525.9 2271.97C1533.65 2271.28 1540.44 2276.93 1541.15 2284.64C1541.86 2292.35 1536.19 2299.17 1528.48 2299.88L1486.61 2303.75C1486.17 2303.79 1485.74 2303.81 1485.31 2303.81Z" fill="url(#paint33_linear_2038_642)"/>
<path d="M2233.26 1165.85C2225.52 1165.85 2219.96 1159.57 2219.96 1151.83V1144.82C2219.96 1137.08 2225.52 1130.81 2233.26 1130.81C2241 1130.81 2246.56 1137.08 2246.56 1144.82V1151.83C2246.56 1159.57 2241 1165.85 2233.26 1165.85ZM2233.26 1106.28C2225.52 1106.28 2219.96 1100 2219.96 1092.26V1050.21C2219.96 1042.47 2225.52 1036.2 2233.26 1036.2C2241 1036.2 2246.56 1042.47 2246.56 1050.21V1092.26C2246.56 1100 2241 1106.28 2233.26 1106.28ZM2233.26 1011.67C2225.52 1011.67 2219.96 1005.39 2219.96 997.652V955.602C2219.96 947.861 2225.52 941.585 2233.26 941.585C2241 941.585 2246.56 947.861 2246.56 955.602V997.652C2246.56 1005.39 2241 1011.67 2233.26 1011.67ZM2233.26 917.056C2225.52 917.056 2219.96 910.78 2219.96 903.04V860.99C2219.96 853.249 2225.52 846.973 2233.26 846.973C2241 846.973 2246.56 853.249 2246.56 860.99V903.04C2246.56 910.78 2241 917.056 2233.26 917.056ZM2232.93 822.113C2229.37 822.113 2226.51 821.602 2224.04 818.277H2194.77C2187.03 818.277 2180.75 812.718 2180.75 804.978C2180.75 797.238 2187.03 791.679 2194.77 791.679H2233.31C2241.05 791.679 2246.56 797.184 2246.56 804.924V808.428C2246.56 816.168 2240.67 822.113 2232.93 822.113ZM2142.21 818.277H2100.16C2092.42 818.277 2086.14 812.718 2086.14 804.978C2086.14 797.238 2092.42 791.679 2100.16 791.679H2142.21C2149.95 791.679 2156.22 797.238 2156.22 804.978C2156.22 812.718 2149.95 818.277 2142.21 818.277ZM2047.59 818.277H2005.54C1997.8 818.277 1991.53 812.718 1991.53 804.978C1991.53 797.238 1997.8 791.679 2005.54 791.679H2047.59C2055.33 791.679 2061.61 797.238 2061.61 804.978C2061.61 812.718 2055.34 818.277 2047.59 818.277Z" fill="url(#paint34_linear_2038_642)"/>
<path d="M734.404 1541.45C764.876 1541.45 789.578 1516.75 789.578 1486.28C789.578 1455.81 764.876 1431.11 734.404 1431.11C703.933 1431.11 679.23 1455.81 679.23 1486.28C679.23 1516.75 703.933 1541.45 734.404 1541.45Z" fill="url(#paint35_linear_2038_642)"/>
<path d="M1526.34 2340.4C1556.81 2340.4 1581.51 2315.7 1581.51 2285.22C1581.51 2254.75 1556.81 2230.05 1526.34 2230.05C1495.87 2230.05 1471.16 2254.75 1471.16 2285.22C1471.16 2315.7 1495.87 2340.4 1526.34 2340.4Z" fill="url(#paint36_linear_2038_642)"/>
<path d="M1915.3 865.154C1945.77 865.154 1970.47 840.452 1970.47 809.98C1970.47 779.508 1945.77 754.806 1915.3 754.806C1884.83 754.806 1860.12 779.508 1860.12 809.98C1860.12 840.452 1884.83 865.154 1915.3 865.154Z" fill="url(#paint37_linear_2038_642)"/>
<path d="M2234.17 1233.09C2264.65 1233.09 2289.35 1208.39 2289.35 1177.91C2289.35 1147.44 2264.65 1122.74 2234.17 1122.74C2203.7 1122.74 2179 1147.44 2179 1177.91C2179 1208.39 2203.7 1233.09 2234.17 1233.09Z" fill="url(#paint38_linear_2038_642)"/>
<defs>
<linearGradient id="paint0_linear_2038_642" x1="1819.57" y1="193.688" x2="1972.22" y2="2460.05" gradientUnits="userSpaceOnUse">
<stop offset="0.0036" stop-color="#E38DDD"/>
<stop offset="1" stop-color="#9571F6"/>
</linearGradient>
<linearGradient id="paint1_linear_2038_642" x1="2247.44" y1="620.564" x2="2014.63" y2="2188.31" gradientUnits="userSpaceOnUse">
<stop stop-color="#FF9085"/>
<stop offset="1" stop-color="#FB6FBB"/>
</linearGradient>
<linearGradient id="paint2_linear_2038_642" x1="231.722" y1="1165.84" x2="1927.67" y2="1165.84" gradientUnits="userSpaceOnUse">
<stop stop-color="#AB316D"/>
<stop offset="1" stop-color="#792D3D"/>
</linearGradient>
<linearGradient id="paint3_linear_2038_642" x1="1819.06" y1="-308.208" x2="79.3969" y2="3276.57" gradientUnits="userSpaceOnUse">
<stop stop-color="#FFC444"/>
<stop offset="0.9964" stop-color="#F36F56"/>
</linearGradient>
<linearGradient id="paint4_linear_2038_642" x1="274.945" y1="511.981" x2="1964.05" y2="511.981" gradientUnits="userSpaceOnUse">
<stop stop-color="#AB316D"/>
<stop offset="1" stop-color="#792D3D"/>
</linearGradient>
<linearGradient id="paint5_linear_2038_642" x1="2296.98" y1="995.702" x2="1022.79" y2="3485.85" gradientUnits="userSpaceOnUse">
<stop stop-color="#40447E"/>
<stop offset="0.9964" stop-color="#3C3B6B"/>
</linearGradient>
<linearGradient id="paint6_linear_2038_642" x1="1362.16" y1="1327.99" x2="2277.44" y2="1327.99" gradientUnits="userSpaceOnUse">
<stop stop-color="#40447E"/>
<stop offset="0.9964" stop-color="#3C3B6B"/>
</linearGradient>
<linearGradient id="paint7_linear_2038_642" x1="1711.27" y1="1334.19" x2="2233.26" y2="1334.19" gradientUnits="userSpaceOnUse">
<stop stop-color="#40447E"/>
<stop offset="0.9964" stop-color="#3C3B6B"/>
</linearGradient>
<linearGradient id="paint8_linear_2038_642" x1="1417.84" y1="1331.37" x2="1482.19" y2="1331.37" gradientUnits="userSpaceOnUse">
<stop stop-color="#40447E"/>
<stop offset="0.9964" stop-color="#3C3B6B"/>
</linearGradient>
<linearGradient id="paint9_linear_2038_642" x1="1503.11" y1="1332.1" x2="1566.68" y2="1332.1" gradientUnits="userSpaceOnUse">
<stop stop-color="#40447E"/>
<stop offset="0.9964" stop-color="#3C3B6B"/>
</linearGradient>
<linearGradient id="paint10_linear_2038_642" x1="1587.33" y1="1332.83" x2="1650.13" y2="1332.83" gradientUnits="userSpaceOnUse">
<stop stop-color="#40447E"/>
<stop offset="0.9964" stop-color="#3C3B6B"/>
</linearGradient>
<linearGradient id="paint11_linear_2038_642" x1="1435.31" y1="2034.42" x2="2216.64" y2="2034.42" gradientUnits="userSpaceOnUse">
<stop stop-color="#40447E"/>
<stop offset="0.9964" stop-color="#3C3B6B"/>
</linearGradient>
<linearGradient id="paint12_linear_2038_642" x1="1491.83" y1="1721.36" x2="1820.99" y2="1721.36" gradientUnits="userSpaceOnUse">
<stop stop-color="#40447E"/>
<stop offset="0.9964" stop-color="#3C3B6B"/>
</linearGradient>
<linearGradient id="paint13_linear_2038_642" x1="1844.26" y1="1579.58" x2="2166.76" y2="1579.58" gradientUnits="userSpaceOnUse">
<stop stop-color="#40447E"/>
<stop offset="0.9964" stop-color="#3C3B6B"/>
</linearGradient>
<linearGradient id="paint14_linear_2038_642" x1="1844.26" y1="1668.4" x2="2166.76" y2="1668.4" gradientUnits="userSpaceOnUse">
<stop stop-color="#40447E"/>
<stop offset="0.9964" stop-color="#3C3B6B"/>
</linearGradient>
<linearGradient id="paint15_linear_2038_642" x1="1844.26" y1="1760.63" x2="2166.76" y2="1760.63" gradientUnits="userSpaceOnUse">
<stop stop-color="#40447E"/>
<stop offset="0.9964" stop-color="#3C3B6B"/>
</linearGradient>
<linearGradient id="paint16_linear_2038_642" x1="1844.26" y1="1846.03" x2="2166.76" y2="1846.03" gradientUnits="userSpaceOnUse">
<stop stop-color="#40447E"/>
<stop offset="0.9964" stop-color="#3C3B6B"/>
</linearGradient>
<linearGradient id="paint17_linear_2038_642" x1="1495.15" y1="1972.72" x2="2166.77" y2="1972.72" gradientUnits="userSpaceOnUse">
<stop stop-color="#40447E"/>
<stop offset="0.9964" stop-color="#3C3B6B"/>
</linearGradient>
<linearGradient id="paint18_linear_2038_642" x1="1495.15" y1="2062.71" x2="2166.77" y2="2062.71" gradientUnits="userSpaceOnUse">
<stop stop-color="#40447E"/>
<stop offset="0.9964" stop-color="#3C3B6B"/>
</linearGradient>
<linearGradient id="paint19_linear_2038_642" x1="1495.15" y1="2152.71" x2="2166.77" y2="2152.71" gradientUnits="userSpaceOnUse">
<stop stop-color="#40447E"/>
<stop offset="0.9964" stop-color="#3C3B6B"/>
</linearGradient>
<linearGradient id="paint20_linear_2038_642" x1="1495.15" y1="2242.71" x2="2166.77" y2="2242.71" gradientUnits="userSpaceOnUse">
<stop stop-color="#40447E"/>
<stop offset="0.9964" stop-color="#3C3B6B"/>
</linearGradient>
<linearGradient id="paint21_linear_2038_642" x1="1495.15" y1="2388.09" x2="2166.77" y2="2388.09" gradientUnits="userSpaceOnUse">
<stop stop-color="#40447E"/>
<stop offset="0.9964" stop-color="#3C3B6B"/>
</linearGradient>
<linearGradient id="paint22_linear_2038_642" x1="1495.15" y1="2478.08" x2="2166.77" y2="2478.08" gradientUnits="userSpaceOnUse">
<stop stop-color="#40447E"/>
<stop offset="0.9964" stop-color="#3C3B6B"/>
</linearGradient>
<linearGradient id="paint23_linear_2038_642" x1="2336.79" y1="997.825" x2="1067.03" y2="3479.31" gradientUnits="userSpaceOnUse">
<stop offset="0.0036" stop-color="#E38DDD"/>
<stop offset="1" stop-color="#9571F6"/>
</linearGradient>
<linearGradient id="paint24_linear_2038_642" x1="1405.38" y1="1328.37" x2="2316.6" y2="1328.37" gradientUnits="userSpaceOnUse">
<stop stop-color="#40447E"/>
<stop offset="0.9964" stop-color="#3C3B6B"/>
</linearGradient>
<linearGradient id="paint25_linear_2038_642" x1="1475.2" y1="2032.63" x2="2256.54" y2="2032.63" gradientUnits="userSpaceOnUse">
<stop offset="0.0036" stop-color="#E38DDD"/>
<stop offset="1" stop-color="#9571F6"/>
</linearGradient>
<linearGradient id="paint26_linear_2038_642" x1="365.386" y1="2340.19" x2="1031.76" y2="2340.19" gradientUnits="userSpaceOnUse">
<stop stop-color="#444B8C"/>
<stop offset="0.9964" stop-color="#26264F"/>
</linearGradient>
<linearGradient id="paint27_linear_2038_642" x1="898.747" y1="1989.93" x2="551.807" y2="2755.35" gradientUnits="userSpaceOnUse">
<stop stop-color="#AA80F9"/>
<stop offset="0.9964" stop-color="#6165D7"/>
</linearGradient>
<linearGradient id="paint28_linear_2038_642" x1="532.082" y1="2667.74" x2="712.84" y2="2380.65" gradientUnits="userSpaceOnUse">
<stop stop-color="#AA80F9"/>
<stop offset="0.9964" stop-color="#6165D7"/>
</linearGradient>
<linearGradient id="paint29_linear_2038_642" x1="611.95" y1="2245.1" x2="881.485" y2="2817.27" gradientUnits="userSpaceOnUse">
<stop stop-color="#AA80F9"/>
<stop offset="0.9964" stop-color="#6165D7"/>
</linearGradient>
<linearGradient id="paint30_linear_2038_642" x1="713.82" y1="1933.26" x2="740.418" y2="1933.26" gradientUnits="userSpaceOnUse">
<stop stop-color="#444B8C"/>
<stop offset="0.9964" stop-color="#26264F"/>
</linearGradient>
<linearGradient id="paint31_linear_2038_642" x1="713.82" y1="1723.01" x2="740.418" y2="1723.01" gradientUnits="userSpaceOnUse">
<stop stop-color="#444B8C"/>
<stop offset="0.9964" stop-color="#26264F"/>
</linearGradient>
<linearGradient id="paint32_linear_2038_642" x1="713.82" y1="1502.25" x2="740.418" y2="1502.25" gradientUnits="userSpaceOnUse">
<stop stop-color="#444B8C"/>
<stop offset="0.9964" stop-color="#26264F"/>
</linearGradient>
<linearGradient id="paint33_linear_2038_642" x1="1094.46" y1="2305.29" x2="1541.21" y2="2305.29" gradientUnits="userSpaceOnUse">
<stop stop-color="#444B8C"/>
<stop offset="0.9964" stop-color="#26264F"/>
</linearGradient>
<linearGradient id="paint34_linear_2038_642" x1="1991.53" y1="978.764" x2="2246.56" y2="978.764" gradientUnits="userSpaceOnUse">
<stop stop-color="#444B8C"/>
<stop offset="0.9964" stop-color="#26264F"/>
</linearGradient>
<linearGradient id="paint35_linear_2038_642" x1="679.23" y1="1486.28" x2="789.578" y2="1486.28" gradientUnits="userSpaceOnUse">
<stop stop-color="#444B8C"/>
<stop offset="0.9964" stop-color="#26264F"/>
</linearGradient>
<linearGradient id="paint36_linear_2038_642" x1="1471.16" y1="2285.22" x2="1581.51" y2="2285.22" gradientUnits="userSpaceOnUse">
<stop stop-color="#444B8C"/>
<stop offset="0.9964" stop-color="#26264F"/>
</linearGradient>
<linearGradient id="paint37_linear_2038_642" x1="1860.12" y1="809.98" x2="1970.47" y2="809.98" gradientUnits="userSpaceOnUse">
<stop stop-color="#444B8C"/>
<stop offset="0.9964" stop-color="#26264F"/>
</linearGradient>
<linearGradient id="paint38_linear_2038_642" x1="2179" y1="1177.91" x2="2289.35" y2="1177.91" gradientUnits="userSpaceOnUse">
<stop stop-color="#444B8C"/>
<stop offset="0.9964" stop-color="#26264F"/>
</linearGradient>
</defs>
</svg>
